<svg xmlns="http://www.w3.org/2000/svg" viewBox="0 0 420 780" role="img" aria-label="Suomen kartta">
  <path fill="currentColor" d="M242 17c-27 20-32 48-26 83l-70-23-44 42 31 48-38 63 36 57-25 62 39 52-18 76 53 63-22 86 62 70 5 54 54 20 65-45 26-73-32-78 49-67-37-64 37-72-42-68 39-75-39-70 20-69-63-45-21-61-36-12zM112 616l-47 37 31 35 50-15 13-38-47-19zM82 685l-35 27 25 30 40-18-30-39z"/>
  <path fill="none" stroke="rgba(255,255,255,.65)" stroke-width="5" stroke-linecap="round" d="M178 126l41 84-51 78 68 71-41 96 55 73-28 124M285 132l-38 93 57 92-59 75 47 81-41 106M126 356l83 12m-55 149l113-25m-84-206l122-10m-84 311l98 35"/>
</svg>