<svg xmlns="http://www.w3.org/2000/svg" viewBox="0 0 120 140"><path d="M12 10h96v58c0 34-20 54-48 64C32 122 12 102 12 68z" fill="#0b5aa6" stroke="#fff" stroke-width="5"/><path d="M42 22c10 8 10 22 0 31 17-2 27 6 30 20 6-9 15-13 27-11-8-12-7-25 5-35-15 2-28-1-37-13-4 12-12 19-25 8z" fill="#f2c94c" opacity=".95"/><path d="M31 94c18-16 41-16 58 0" fill="none" stroke="#fff" stroke-width="9" stroke-linecap="round"/><path d="M37 102c14-11 31-11 46 0" fill="none" stroke="#fff" stroke-width="5" stroke-linecap="round"/></svg>